<svg xmlns="http://www.w3.org/2000/svg" viewBox="0 0 51 72"><g id="Layer_2" data-name="Layer 2"><g id="Layer_1-2" data-name="Layer 1"><path d="M25.5,4C37.37,4,47,12.42,47,26.5A27.47,27.47,0,0,1,44.81,36C39.25,50.27,25.08,68,25.08,68S12.27,51.34,6.62,37.32A30.59,30.59,0,0,1,4,26.5C4,12.42,13.63,4,25.5,4m0-4a25.28,25.28,0,0,0-18,7.13C2.59,12,0,18.69,0,26.5,0,29.93,1,34,2.91,38.82c5.79,14.36,18.46,30.92,19,31.62A4,4,0,0,0,25,72h0a4,4,0,0,0,3.12-1.5c.6-.75,14.63-18.38,20.33-33A30.7,30.7,0,0,0,51,26.5C51,18.69,48.41,12,43.52,7.13A25.28,25.28,0,0,0,25.5,0Z"/><path d="M26.06,16a9.34,9.34,0,0,1,2.26.29A9,9,0,0,1,26.07,34a9.28,9.28,0,0,1-2.26-.29A9,9,0,0,1,26.06,16m0-4h0a13,13,0,0,0-3.25,25.59,12.84,12.84,0,0,0,3.26.42,13,13,0,0,0,0-26Z"/></g></g></svg>